<svg width="100" height="100" viewBox="0 0 100 100" fill="none" xmlns="http://www.w3.org/2000/svg">
<circle cx="50" cy="33" r="14" fill="#252F9C"/>
<circle cx="50" cy="33" r="26" stroke="#252F9C" stroke-width="8"/>
<path d="M10.3403 89V74.4545H16.3488C17.4378 74.4545 18.3777 74.651 19.1684 75.044C19.9639 75.4323 20.577 75.991 21.0079 76.7202C21.4388 77.4446 21.6542 78.304 21.6542 79.2983C21.6542 80.3068 21.4341 81.1638 20.9937 81.8693C20.5534 82.5701 19.9284 83.1051 19.1187 83.4744C18.3091 83.839 17.3502 84.0213 16.2423 84.0213H12.4426V81.2514H15.5889C16.1192 81.2514 16.5619 81.1828 16.917 81.0455C17.2769 80.9034 17.5491 80.6903 17.7338 80.4062C17.9184 80.1174 18.0108 79.7481 18.0108 79.2983C18.0108 78.8485 17.9184 78.4768 17.7338 78.1832C17.5491 77.8849 17.2769 77.6624 16.917 77.5156C16.5572 77.3641 16.1145 77.2884 15.5889 77.2884H13.8559V89H10.3403ZM18.5292 82.3523L22.1514 89H18.3162L14.765 82.3523H18.5292ZM28.8671 89.206C27.726 89.206 26.7411 88.9811 25.9125 88.5312C25.0887 88.0767 24.4542 87.4304 24.0091 86.5923C23.5688 85.7495 23.3486 84.7481 23.3486 83.5881C23.3486 82.4612 23.5712 81.4763 24.0162 80.6335C24.4613 79.786 25.0887 79.1278 25.8983 78.6591C26.708 78.1856 27.6621 77.9489 28.7605 77.9489C29.5371 77.9489 30.2473 78.0696 30.8912 78.3111C31.5352 78.5526 32.0915 78.91 32.5603 79.3835C33.029 79.857 33.3936 80.4418 33.654 81.1378C33.9144 81.8291 34.0446 82.6222 34.0446 83.517V84.3835H24.5631V82.3665H30.8131C30.8084 81.9972 30.7208 81.6681 30.5503 81.3793C30.3799 81.0904 30.1455 80.8655 29.8472 80.7045C29.5536 80.5388 29.2151 80.456 28.8316 80.456C28.4433 80.456 28.0953 80.5436 27.7875 80.7188C27.4798 80.8892 27.2359 81.1236 27.056 81.4219C26.8761 81.7154 26.7814 82.0492 26.7719 82.4233V84.4759C26.7719 84.9209 26.8595 85.3116 27.0347 85.6477C27.2099 85.9792 27.4585 86.2372 27.7804 86.4219C28.1024 86.6065 28.4859 86.6989 28.931 86.6989C29.2388 86.6989 29.5181 86.6562 29.7691 86.571C30.02 86.4858 30.2355 86.3603 30.4154 86.1946C30.5953 86.0289 30.7302 85.8253 30.8202 85.5838L34.0091 85.6761C33.8765 86.3911 33.5854 87.0137 33.1355 87.544C32.6905 88.0696 32.1057 88.4792 31.3813 88.7727C30.6569 89.0616 29.8188 89.206 28.8671 89.206ZM41.3108 89.206C40.1602 89.206 39.173 88.9692 38.3491 88.4957C37.53 88.0223 36.9002 87.3641 36.4599 86.5213C36.0196 85.6738 35.7994 84.6937 35.7994 83.581C35.7994 82.4635 36.0196 81.4834 36.4599 80.6406C36.905 79.7931 37.5371 79.1326 38.3562 78.6591C39.1801 78.1856 40.1626 77.9489 41.3037 77.9489C42.3122 77.9489 43.1905 78.1312 43.9386 78.4957C44.6914 78.8603 45.2786 79.3764 45.7 80.044C46.1261 80.7069 46.351 81.4858 46.3747 82.3807H43.1289C43.0627 81.822 42.8733 81.384 42.5608 81.0668C42.253 80.7495 41.8505 80.5909 41.3534 80.5909C40.9509 80.5909 40.5982 80.7045 40.2951 80.9318C39.9921 81.1544 39.7554 81.4858 39.5849 81.9261C39.4192 82.3617 39.3363 82.9015 39.3363 83.5455C39.3363 84.1894 39.4192 84.7339 39.5849 85.179C39.7554 85.6193 39.9921 85.9531 40.2951 86.1804C40.5982 86.4029 40.9509 86.5142 41.3534 86.5142C41.6753 86.5142 41.9594 86.4455 42.2056 86.3082C42.4566 86.1709 42.6626 85.9697 42.8235 85.7045C42.9845 85.4347 43.0863 85.108 43.1289 84.7244H46.3747C46.3415 85.6241 46.1166 86.41 45.7 87.0824C45.288 87.7547 44.708 88.2779 43.9599 88.652C43.2165 89.0213 42.3335 89.206 41.3108 89.206ZM51.6273 89.1847C50.9313 89.1847 50.3134 89.0687 49.7736 88.8366C49.2386 88.5999 48.8148 88.2448 48.5023 87.7713C48.1945 87.2931 48.0407 86.6941 48.0407 85.9744C48.0407 85.3684 48.1472 84.857 48.3603 84.4403C48.5733 84.0237 48.8669 83.6851 49.2409 83.4247C49.615 83.1643 50.0459 82.9678 50.5336 82.8352C51.0212 82.6979 51.5421 82.6056 52.0961 82.5582C52.7163 82.5014 53.2159 82.4422 53.5946 82.3807C53.9734 82.3144 54.248 82.2221 54.4185 82.1037C54.5937 81.9806 54.6813 81.8078 54.6813 81.5852V81.5497C54.6813 81.1851 54.5558 80.9034 54.3049 80.7045C54.0539 80.5057 53.7154 80.4062 53.2892 80.4062C52.83 80.4062 52.4606 80.5057 52.1813 80.7045C51.9019 80.9034 51.7244 81.178 51.6486 81.5284L48.4455 81.4148C48.5402 80.7519 48.784 80.16 49.177 79.6392C49.5748 79.1136 50.1193 78.7017 50.8105 78.4034C51.5066 78.1004 52.3423 77.9489 53.3176 77.9489C54.0137 77.9489 54.6552 78.0317 55.2424 78.1974C55.8295 78.3584 56.3408 78.5952 56.7765 78.9077C57.2121 79.2154 57.5482 79.5942 57.785 80.044C58.0265 80.4938 58.1472 81.0076 58.1472 81.5852V89H54.8801V87.4801H54.7949C54.6008 87.8494 54.3522 88.1619 54.0492 88.4176C53.7509 88.6733 53.3981 88.8651 52.9909 88.9929C52.5885 89.1207 52.1339 89.1847 51.6273 89.1847ZM52.6998 86.9119C53.0738 86.9119 53.41 86.8362 53.7083 86.6847C54.0113 86.5331 54.2528 86.3248 54.4327 86.0597C54.6126 85.7898 54.7026 85.4773 54.7026 85.1222V84.0852C54.6032 84.1373 54.4824 84.1847 54.3404 84.2273C54.2031 84.2699 54.0516 84.3101 53.8858 84.348C53.7201 84.3859 53.5497 84.419 53.3745 84.4474C53.1993 84.4759 53.0312 84.5019 52.8702 84.5256C52.5435 84.5777 52.2641 84.6581 52.0321 84.767C51.8049 84.8759 51.6297 85.018 51.5066 85.1932C51.3882 85.3636 51.329 85.5672 51.329 85.804C51.329 86.1638 51.4569 86.4384 51.7125 86.6278C51.973 86.8172 52.302 86.9119 52.6998 86.9119ZM60.6708 93.0909V78.0909H64.1083V79.9588H64.2148C64.3569 79.6274 64.5581 79.3078 64.8185 79C65.0837 78.6922 65.4198 78.4413 65.827 78.2472C66.239 78.0483 66.7314 77.9489 67.3043 77.9489C68.0619 77.9489 68.7697 78.1477 69.4279 78.5455C70.0908 78.9432 70.6258 79.5563 71.033 80.3849C71.4402 81.2135 71.6438 82.2694 71.6438 83.5526C71.6438 84.7884 71.4473 85.8229 71.0543 86.6562C70.666 87.4896 70.1405 88.1146 69.4776 88.5312C68.8194 88.9479 68.0879 89.1562 67.283 89.1562C66.7337 89.1562 66.2579 89.0663 65.8554 88.8864C65.453 88.7064 65.1144 88.4697 64.8398 88.1761C64.5699 87.8826 64.3616 87.5677 64.2148 87.2315H64.1438V93.0909H60.6708ZM64.0728 83.5455C64.0728 84.1326 64.1509 84.6439 64.3071 85.0795C64.4681 85.5152 64.6978 85.8537 64.9961 86.0952C65.2991 86.3319 65.6613 86.4503 66.0827 86.4503C66.5088 86.4503 66.8711 86.3319 67.1694 86.0952C67.4676 85.8537 67.6926 85.5152 67.8441 85.0795C68.0003 84.6439 68.0784 84.1326 68.0784 83.5455C68.0784 82.9583 68.0003 82.4493 67.8441 82.0185C67.6926 81.5876 67.4676 81.2538 67.1694 81.017C66.8758 80.7803 66.5136 80.6619 66.0827 80.6619C65.6566 80.6619 65.2944 80.7779 64.9961 81.0099C64.6978 81.242 64.4681 81.5734 64.3071 82.0043C64.1509 82.4351 64.0728 82.9489 64.0728 83.5455ZM77.3368 74.4545V89H73.8637V74.4545H77.3368ZM82.0709 93.0909C81.6542 93.0909 81.2613 93.0578 80.8919 92.9915C80.5226 92.9299 80.2054 92.8471 79.9402 92.7429L80.7073 90.2216C81.0482 90.3352 81.356 90.4015 81.6306 90.4205C81.9099 90.4394 82.149 90.3944 82.3479 90.2855C82.5515 90.1813 82.7078 89.9943 82.8167 89.7244L82.9516 89.3977L79.0738 78.0909H82.7101L84.7201 85.875H84.8337L86.872 78.0909H90.5297L86.4175 90.044C86.2186 90.6406 85.9369 91.1662 85.5723 91.6207C85.2125 92.08 84.7461 92.4399 84.1732 92.7003C83.605 92.9607 82.9042 93.0909 82.0709 93.0909Z" fill="#252F9C"/>
</svg>
