<svg width="600" height="600" viewBox="0 0 600 600" fill="none" xmlns="http://www.w3.org/2000/svg">
<rect width="600" height="600" fill="#0C031C"/>
<path d="M325.562 185.464C337.938 185.464 337.938 185.464 343.562 186.464C343.562 187.124 343.562 187.784 343.562 188.464C344.697 188.546 345.831 188.629 347 188.714C352.004 189.333 356.057 191.304 360.562 193.464C361.852 193.99 363.143 194.511 364.438 195.026C367.365 196.373 368.407 197.248 370.562 199.464C371.906 200.499 373.261 201.519 374.625 202.526C385.652 211.061 395.229 221.008 399.562 234.464C400.045 235.644 400.045 235.644 400.537 236.848C404 245.679 405.063 254.352 404.938 263.776C404.93 264.862 404.922 265.948 404.913 267.067C404.722 277.926 403.65 287.717 398.562 297.464C397.876 299.699 397.876 299.699 397.562 301.464C396.902 301.464 396.243 301.464 395.562 301.464C395.209 302.752 395.209 302.752 394.848 304.065C393.425 307.827 391.468 310.717 389 313.839C388.552 314.408 388.105 314.978 387.644 315.564C374.143 332.366 354.796 342.452 333.562 345.464C330.922 345.464 328.283 345.464 325.562 345.464C325.562 327.974 325.562 310.484 325.562 292.464C330.512 291.474 330.512 291.474 335.562 290.464C343.454 286.716 348.423 280.965 351.805 273.003C353.714 266.607 353.249 260.51 350.562 254.464C350.212 253.536 349.861 252.608 349.5 251.651C346.435 246.609 343.402 244.005 338.562 240.464C334.273 239.804 329.983 239.144 325.562 238.464C325.562 220.974 325.562 203.484 325.562 185.464Z" fill="#F7F6F7"/>
<path d="M299.563 139.464C328.338 137.774 357.282 149.81 379.014 168.162C380.392 169.32 381.796 170.447 383.203 171.569C403.81 188.753 417.905 216.039 421.563 242.464C422.114 248.787 422.366 255.121 422.563 261.464C421.573 261.464 420.583 261.464 419.563 261.464C419.609 262.315 419.655 263.166 419.703 264.042C420.5 290.778 410.447 316.272 393.629 336.827C391.558 339.274 391.558 339.274 390.531 341.616C389.264 344.033 387.7 345.115 385.5 346.714C382.228 349.157 379.178 351.684 376.188 354.464C364.006 365.464 364.006 365.464 358.563 365.464C358.563 366.124 358.563 366.784 358.563 367.464C357.561 367.862 356.559 368.261 355.527 368.671C354.185 369.206 352.842 369.741 351.5 370.276C350.843 370.538 350.186 370.799 349.51 371.067C346.23 372.376 342.977 373.717 339.75 375.151C336.692 376.411 334.816 376.76 331.563 376.464C331.563 377.124 331.563 377.784 331.563 378.464C320.804 380.373 310.524 381.995 299.563 381.464C299.563 382.124 299.563 382.784 299.563 383.464C279.192 383.84 260.632 379.729 242.563 370.464C242.563 369.804 242.563 369.144 242.563 368.464C241.366 368.196 240.17 367.928 238.938 367.651C220 361.29 203.059 339.006 193.563 322.464C193.563 321.804 193.563 321.144 193.563 320.464C192.903 320.464 192.243 320.464 191.563 320.464C190.572 318.449 189.595 316.427 188.625 314.401C188.08 313.276 187.534 312.151 186.973 310.991C185.546 307.424 184.946 304.273 184.563 300.464C183.903 300.464 183.243 300.464 182.563 300.464C182.369 299.185 182.176 297.906 181.977 296.589C181.714 294.881 181.451 293.172 181.188 291.464C180.998 290.205 180.998 290.205 180.805 288.921C180.192 284.968 179.513 281.109 178.469 277.245C177.606 273.646 177.354 270.648 177.438 266.964C177.456 265.922 177.474 264.881 177.492 263.808C177.527 262.648 177.527 262.648 177.563 261.464C178.223 261.464 178.883 261.464 179.563 261.464C179.528 260.567 179.493 259.67 179.457 258.745C179.13 243.666 181.943 230.503 187.563 216.464C188.005 215.304 188.005 215.304 188.457 214.12C193.805 201.032 202.096 189.816 211.563 179.464C212.279 178.665 212.996 177.866 213.734 177.042C219.724 170.692 226.69 165.662 233.822 160.68C235.484 159.519 237.127 158.33 238.77 157.14C241.563 155.464 241.563 155.464 245.563 155.464C245.563 154.804 245.563 154.144 245.563 153.464C251.895 150.83 258.274 148.502 264.801 146.394C267.537 145.513 267.537 145.513 270.012 144.417C279.256 140.963 289.832 141.173 299.563 141.464C299.563 140.804 299.563 140.144 299.563 139.464ZM212.363 182.374C202.357 193.16 202.357 193.16 197.563 206.464C196.903 206.464 196.243 206.464 195.563 206.464C192.747 211.505 191.044 215.69 190.563 221.464C189.903 221.464 189.243 221.464 188.563 221.464C187.745 224.504 186.935 227.547 186.125 230.589C185.895 231.445 185.665 232.301 185.428 233.183C183.53 240.334 182.406 246.908 182.5 254.339C182.505 255.027 182.509 255.716 182.514 256.425C182.525 258.105 182.543 259.784 182.563 261.464C183.553 261.464 184.543 261.464 185.563 261.464C185.557 262.065 185.552 262.665 185.547 263.284C185.526 265.99 185.513 268.696 185.5 271.401C185.492 272.347 185.483 273.293 185.475 274.267C185.471 275.166 185.468 276.065 185.465 276.991C185.457 278.24 185.457 278.24 185.449 279.515C185.346 281.469 185.346 281.469 186.563 282.464C187.017 285.119 187.265 287.786 187.563 290.464C188.223 290.464 188.883 290.464 189.563 290.464C189.624 291.557 189.686 292.65 189.75 293.776C190.336 298.524 192.168 302.373 194.23 306.651C195.507 309.346 196.615 312.057 197.688 314.839C199.038 318.259 200.373 321.478 202.563 324.464C203.223 324.464 203.883 324.464 204.563 324.464C204.78 325.151 204.998 325.838 205.223 326.546C206.946 330.299 209.295 333.058 212 336.151C212.534 336.766 213.068 337.38 213.619 338.013C221.605 347.052 230.174 354.283 240.563 360.464C241.674 361.214 241.674 361.214 242.809 361.98C259.816 373.18 280.504 376.872 300.563 376.464C300.563 377.124 300.563 377.784 300.563 378.464C328.984 380.582 356.339 367.37 377.563 349.464C378.175 348.986 378.787 348.507 379.418 348.015C400.178 331.435 413.462 302.151 417.293 276.335C417.759 271.376 417.721 266.438 417.563 261.464C416.573 261.464 415.583 261.464 414.563 261.464C414.597 260.711 414.632 259.958 414.668 259.183C415.019 245.412 412.206 231.435 407.563 218.464C406.903 217.804 406.243 217.144 405.563 216.464C405.003 215.062 404.489 213.642 404 212.214C399.115 199.75 390.793 189.921 381.563 180.464C380.981 179.821 380.4 179.177 379.801 178.515C362.612 159.94 333.833 147.443 308.742 146.288C305.675 146.278 302.627 146.324 299.563 146.464C299.563 145.804 299.563 145.144 299.563 144.464C266.351 142.929 234.967 158.668 212.363 182.374Z" fill="#B3B3B8"/>
<path d="M478.562 186.464C487.053 210.212 487.053 210.212 489.09 219.452C489.494 221.519 489.494 221.519 490.562 223.464C492.639 235.351 492.926 247.178 492.875 259.214C492.874 260.093 492.872 260.973 492.87 261.879C492.819 278.654 491.52 294.191 486.531 310.292C485.578 313.413 484.804 316.536 484.062 319.714C473.395 362.61 438.813 402.593 401.85 425.338C383.649 436.285 383.649 436.285 377.562 438.464C374.562 437.464 374.562 437.464 372.812 434.151C371.562 430.464 371.562 430.464 371.535 428.468C373.229 425.164 376.508 424.183 379.75 422.714C381.221 422.01 382.691 421.303 384.16 420.593C384.902 420.237 385.643 419.882 386.407 419.515C401.591 412.11 414.323 402.019 426.562 390.464C427.259 389.809 427.955 389.154 428.672 388.479C433.176 384.115 437.084 379.445 440.898 374.468C442.562 372.464 442.562 372.464 444.562 371.464C445.637 369.794 445.637 369.794 446.688 367.714C448.943 363.546 451.3 359.457 453.75 355.401C454.424 354.276 455.098 353.151 455.793 351.991C456.669 350.74 456.669 350.74 457.562 349.464C458.223 349.464 458.882 349.464 459.562 349.464C459.8 348.555 459.8 348.555 460.043 347.628C460.276 346.79 460.51 345.952 460.75 345.089C460.97 344.277 461.191 343.465 461.418 342.628C462.423 339.849 463.577 337.401 464.926 334.78C480.635 303.883 484.855 264.412 478.562 230.464C477.928 229.115 477.266 227.778 476.562 226.464C476.243 224.827 475.976 223.179 475.75 221.526C474.803 215.854 472.883 210.869 470.734 205.554C469.226 201.577 468.349 197.629 467.562 193.464C467.237 192.129 466.906 190.795 466.562 189.464C467.998 188.958 469.436 188.46 470.875 187.964C471.676 187.685 472.476 187.407 473.301 187.12C475.562 186.464 475.562 186.464 478.562 186.464Z" fill="#B3B3B8"/>
<path d="M224.562 85.4638C226.375 87.0888 226.375 87.0888 227.562 89.4638C227.61 91.4633 227.614 93.4645 227.562 95.4638C226.593 95.9253 225.624 96.3868 224.625 96.8623C187.674 114.723 151.708 144.749 136.25 183.901C136.006 184.601 135.763 185.301 135.512 186.022C134.671 188.183 133.716 190.147 132.652 192.202C130.512 196.424 128.913 200.722 127.437 205.214C127.177 206 126.917 206.785 126.649 207.595C124.646 213.828 123.439 219.978 122.562 226.464C122.223 228.3 121.87 230.134 121.5 231.964C121.344 232.737 121.188 233.511 121.027 234.308C120.562 236.464 120.562 236.464 120.044 238.115C119.357 241.467 119.4 244.795 119.394 248.202C119.391 248.96 119.388 249.718 119.384 250.499C119.379 252.107 119.377 253.715 119.377 255.322C119.375 257.73 119.357 260.137 119.338 262.544C119.302 272.369 119.953 281.751 121.562 291.464C121.688 292.243 121.814 293.022 121.943 293.825C123.277 301.62 125.23 309.15 127.695 316.659C128.562 319.464 128.562 319.464 129.082 322.241C129.358 324.553 129.358 324.553 131.125 325.901C132.562 327.464 132.562 327.464 132.75 330.651C132.657 332.044 132.657 332.044 132.562 333.464C126.357 336.447 126.357 336.447 123.492 336.507C120.808 335.056 120.411 333.099 119.531 330.288C119.335 329.604 119.139 328.919 118.937 328.214C117.388 323.019 117.388 323.019 115.543 317.925C114.292 314.785 113.408 311.593 112.5 308.339C111.111 303.377 111.111 303.377 109.562 298.464C107.436 285.303 107.124 272.146 107.125 258.839C107.123 257.826 107.121 256.813 107.12 255.769C107.133 237.652 108.721 221.644 115.648 204.763C116.78 201.917 117.661 199.034 118.5 196.089C129.184 160.831 153.48 129.664 182.811 107.775C184.496 106.514 186.16 105.229 187.824 103.94C194.722 98.7054 201.981 94.4049 209.625 90.3388C210.982 89.6099 210.982 89.6099 212.367 88.8662C213.227 88.4215 214.087 87.9767 214.973 87.5185C215.737 87.1213 216.502 86.7241 217.289 86.3149C219.895 85.3393 221.801 85.1909 224.562 85.4638Z" fill="#B3B3B8"/>
<path d="M283 85.4013C284.05 85.4103 285.101 85.4193 286.184 85.4286C286.969 85.4402 287.754 85.4518 288.562 85.4638C288.892 89.0938 289.222 92.7238 289.562 96.4638C290.797 96.4406 292.032 96.4174 293.305 96.3935C304.877 96.2427 316.113 96.7598 327.562 98.4638C328.801 98.6468 330.04 98.8299 331.316 99.0185C346.421 101.658 360.763 107.278 374.496 113.983C377.153 115.266 379.809 116.409 382.562 117.464C382.562 118.124 382.562 118.784 382.562 119.464C383.255 119.704 383.947 119.943 384.66 120.19C388.08 121.691 390.99 123.659 394 125.839C394.605 126.275 395.211 126.711 395.835 127.161C417.329 142.897 433.303 161.46 446.562 184.464C447.01 185.24 447.457 186.015 447.918 186.815C450.169 190.784 452.204 194.632 453.687 198.964C454.01 199.898 454.332 200.833 454.664 201.796C454.96 202.676 455.257 203.557 455.562 204.464C455.945 205.521 455.945 205.521 456.336 206.601C460.907 219.502 464.562 233.759 464.562 247.464C468.852 247.464 473.142 247.464 477.562 247.464C478.403 282.58 472.509 314.987 456.562 346.464C455.902 346.464 455.242 346.464 454.562 346.464C454.301 347.343 454.039 348.222 453.769 349.128C443.999 376.131 413.067 402.192 388.562 415.464C387.902 415.464 387.242 415.464 386.562 415.464C386.562 416.124 386.562 416.784 386.562 417.464C384.902 418.147 383.242 418.831 381.582 419.515C379.491 420.44 379.491 420.44 377.441 421.851C373.378 424.128 369.094 425.486 364.687 426.964C357.758 429.297 357.758 429.297 350.992 432.058C343.626 435.078 335.717 435.987 327.875 437.089C326.964 437.223 326.053 437.357 325.115 437.495C323.784 437.685 323.784 437.685 322.426 437.878C321.635 437.991 320.844 438.104 320.028 438.22C317.219 438.498 314.386 438.464 311.562 438.464C311.562 434.504 311.562 430.544 311.562 426.464C309.078 426.499 309.078 426.499 306.543 426.534C270.944 426.886 270.944 426.886 258.133 421.518C255.316 420.363 252.492 419.543 249.562 418.714C229.187 412.469 210.505 402.678 194.562 388.464C193.703 387.712 192.843 386.961 191.957 386.186C189.461 383.977 187.006 381.731 184.562 379.464C183.92 378.888 183.278 378.311 182.617 377.718C173.215 368.886 164.892 357.645 158.711 346.347C157.64 344.408 157.64 344.408 155.988 342.968C153.469 340.311 153.311 336.974 152.562 333.464C151.902 333.464 151.242 333.464 150.562 333.464C150.232 331.814 149.902 330.164 149.562 328.464C148.902 328.464 148.242 328.464 147.562 328.464C145.878 322.802 144.212 317.135 142.562 311.464C142.21 310.255 142.21 310.255 141.851 309.021C141.164 306.65 140.487 304.276 139.812 301.901C139.602 301.177 139.392 300.453 139.175 299.706C136.897 291.612 136.446 283.857 136.562 275.464C131.942 275.464 127.322 275.464 122.562 275.464C122.012 243.017 122.012 243.017 125.562 228.464C126.055 225.448 126.505 222.43 126.937 219.405C127.809 215.301 129.171 211.417 130.562 207.464C130.843 206.665 131.124 205.866 131.414 205.042C132.285 202.595 133.171 200.154 134.062 197.714C134.358 196.89 134.653 196.066 134.957 195.218C136.501 190.995 138.179 187.292 140.562 183.464C141.025 182.363 141.488 181.262 141.965 180.128C143.715 176.114 145.791 172.532 148.125 168.839C148.564 168.143 149.003 167.447 149.455 166.73C167.333 138.81 191.447 117.853 220.684 102.462C222.21 101.651 223.716 100.803 225.215 99.9443C241.106 91.1469 264.905 85.198 283 85.4013ZM262.75 90.6513C261.179 90.9886 261.179 90.9886 259.576 91.3327C249.383 93.5965 239.694 96.5802 230.449 101.522C228.384 102.553 226.296 103.307 224.125 104.089C209.568 109.862 197.306 119.312 185.562 129.464C184.627 130.258 183.691 131.052 182.726 131.87C178.045 135.946 173.72 140.294 169.5 144.839C169.022 145.351 168.544 145.864 168.051 146.392C165.907 148.751 164.583 150.401 163.562 153.464C162.824 154.199 162.085 154.933 161.324 155.69C158.188 158.84 155.823 162.149 153.375 165.839C152.937 166.473 152.5 167.107 152.049 167.761C149.272 171.915 147.689 175.592 146.562 180.464C145.902 180.464 145.242 180.464 144.562 180.464C139.354 192.379 139.354 192.379 134.562 204.464C134.342 205.055 134.122 205.646 133.895 206.255C131.406 213.282 129.846 220.477 128.375 227.776C128.24 228.443 128.106 229.109 127.967 229.796C125.141 244.102 124.952 257.889 125.562 272.464C129.852 272.464 134.142 272.464 138.562 272.464C138.565 273.34 138.568 274.217 138.57 275.12C138.841 283.999 140.212 292.218 142.375 300.839C142.623 301.836 142.872 302.833 143.127 303.86C144.805 310.288 146.951 316.359 149.562 322.464C149.998 323.499 149.998 323.499 150.443 324.556C151.224 326.404 152.018 328.247 152.812 330.089C153.333 331.298 153.854 332.507 154.391 333.753C154.777 334.647 155.164 335.542 155.562 336.464C156.222 336.464 156.882 336.464 157.562 336.464C157.769 337.248 157.975 338.031 158.187 338.839C163.696 353.362 174.97 365.385 185.562 376.464C186.418 377.361 187.274 378.258 188.156 379.183C192.285 383.694 192.285 383.694 197.562 386.464C199.244 388.115 200.909 389.784 202.562 391.464C210.164 397.594 218.567 402.246 227.187 406.776C228.141 407.28 229.094 407.783 230.076 408.302C244.727 415.852 260.18 420.226 276.516 422.069C279.562 422.464 279.562 422.464 282.562 423.464C284.919 423.548 287.278 423.571 289.637 423.561C290.32 423.56 291.004 423.559 291.709 423.557C293.889 423.552 296.07 423.539 298.25 423.526C299.73 423.521 301.21 423.517 302.689 423.513C306.314 423.502 309.938 423.484 313.562 423.464C313.562 427.424 313.562 431.384 313.562 435.464C347.466 437.132 386.74 417.485 411.812 395.694C413.654 394.025 415.479 392.336 417.281 390.624C419.192 388.815 421.133 387.165 423.187 385.526C427.984 381.449 431.702 376.402 435.562 371.464C436.628 370.157 436.628 370.157 437.715 368.823C445.152 359.409 450.832 348.972 456.562 338.464C456.905 337.839 457.247 337.214 457.6 336.57C463.102 326.412 466.895 315.681 469.562 304.464C469.817 303.418 469.817 303.418 470.078 302.352C474.29 284.935 474.7 268.333 474.562 250.464C470.272 250.464 465.982 250.464 461.562 250.464C461.459 248.649 461.356 246.834 461.25 244.964C460.258 232.272 458.683 213.665 450.562 203.464C449.875 200.714 449.875 200.714 449.562 198.464C448.902 198.464 448.242 198.464 447.562 198.464C447.655 197.164 447.655 197.164 447.75 195.839C447.538 192.022 446.442 189.753 444.562 186.464C443.902 186.464 443.242 186.464 442.562 186.464C442.471 185.766 442.379 185.069 442.285 184.351C438.899 170.824 425.739 158.304 416.562 148.464C415.516 147.337 415.516 147.337 414.449 146.186C387.931 118.602 347.652 100.309 309.329 99.3859C305.864 99.3659 302.402 99.3762 298.937 99.4013C297.742 99.4058 296.547 99.4103 295.316 99.415C292.398 99.4266 289.48 99.4446 286.562 99.4638C286.232 95.8338 285.902 92.2038 285.562 88.4638C277.609 88.2354 270.509 88.9466 262.75 90.6513Z" fill="#B3B3B8"/>
<path d="M342.563 113.464C349.505 113.915 354.791 115.448 361.063 118.401C361.93 118.804 362.797 119.207 363.691 119.621C398.677 136.173 428.374 164.385 443.563 200.464C444.672 203.709 445.679 206.959 446.606 210.261C447.334 212.697 448.128 215.004 449.039 217.37C454.179 230.936 454.946 244.301 454.938 258.651C454.94 259.791 454.94 259.791 454.943 260.954C454.934 295.889 454.934 295.889 448.563 307.464C444.475 307.704 441.386 306.886 437.563 305.464C437.307 306.533 437.307 306.533 437.047 307.624C434.823 316.413 434.823 316.413 432.563 320.151C430.328 323.853 428.991 327.393 427.563 331.464C426.903 331.464 426.243 331.464 425.563 331.464C425.159 332.547 425.159 332.547 424.746 333.651C415.941 354.574 395.363 372.7 376.563 384.464C375.903 384.464 375.243 384.464 374.563 384.464C374.563 385.124 374.563 385.784 374.563 386.464C365.99 390.36 357.293 393.939 348.563 397.464C347.568 397.871 346.572 398.279 345.547 398.698C318.647 409.168 287.302 407.224 259.563 401.464C259.418 402.413 259.274 403.361 259.125 404.339C258.563 407.464 258.563 407.464 257.563 409.464C251.261 409.949 246.654 408.317 240.875 405.901C239.989 405.537 239.103 405.173 238.189 404.798C231.278 401.895 224.832 398.59 218.563 394.464C217.018 393.466 217.018 393.466 215.442 392.448C194.742 378.632 178.019 361.055 165.563 339.464C165.563 338.804 165.563 338.144 165.563 337.464C164.903 337.464 164.243 337.464 163.563 337.464C158.753 327.821 154.593 318.344 151.586 307.987C150.761 305.147 149.862 302.375 148.875 299.589C144.61 286.889 144.33 273.612 144.313 260.339C144.311 259.654 144.309 258.969 144.308 258.263C144.306 246.117 144.923 234.82 149.563 223.464C149.967 222.034 150.345 220.597 150.688 219.151C150.976 217.934 151.265 216.718 151.563 215.464C155.193 216.124 158.823 216.784 162.563 217.464C162.637 216.514 162.712 215.564 162.789 214.585C163.528 209.492 165.713 205.123 167.938 200.526C168.603 199.145 168.603 199.145 169.281 197.736C175.184 185.806 182.508 175.171 191.656 165.491C193.721 163.36 193.721 163.36 195.938 160.401C199.211 156.738 202.858 153.798 206.699 150.745C208.437 149.361 210.154 147.951 211.832 146.495C223.745 136.314 238.088 128.484 253.145 124.16C254.833 123.674 256.515 123.165 258.192 122.639C273.152 118.023 287.327 116.918 302.875 116.964C303.766 116.965 304.657 116.967 305.575 116.969C308.13 116.981 310.684 117.014 313.238 117.058C314.005 117.066 314.772 117.075 315.562 117.084C319.662 117.192 322.859 117.694 326.563 119.464C331.2 120.75 335.724 121.776 340.563 121.464C341.223 118.824 341.883 116.184 342.563 113.464ZM345.563 116.464C344.573 119.104 343.583 121.744 342.563 124.464C337.367 124.677 333.342 123.922 328.375 122.464C318.815 120.041 309.234 120.039 299.438 120.026C298.676 120.021 297.915 120.015 297.13 120.009C280.735 119.923 265.98 122.784 250.563 128.464C249.338 128.894 248.113 129.325 246.852 129.769C230.62 135.792 214.049 146.004 202.258 158.761C200.563 160.464 200.563 160.464 197.707 162.753C194.355 165.514 191.759 168.652 189.125 172.089C188.651 172.701 188.178 173.312 187.69 173.943C182.038 181.331 177.005 188.783 173.563 197.464C172.567 199.57 171.566 201.674 170.563 203.776C168.01 209.262 166.131 214.626 164.563 220.464C160.933 220.134 157.303 219.804 153.563 219.464C148.521 232.756 148.157 246.425 148.188 260.464C148.187 261.273 148.187 262.082 148.186 262.916C148.208 276.126 149.32 288.617 152.563 301.464C152.955 303.189 152.955 303.189 153.356 304.948C154.533 309.763 156.109 314.072 158.5 318.417C159.715 320.757 160.714 323.169 161.741 325.595C177.162 360.69 205.522 386.915 240.125 402.464C240.768 402.755 241.411 403.046 242.073 403.346C246.291 405.163 250.041 405.998 254.563 406.464C255.223 403.494 255.883 400.524 256.563 397.464C257.635 397.773 258.708 398.083 259.813 398.401C264.394 399.567 268.923 399.87 273.633 400.12C276.563 400.464 276.563 400.464 279.261 401.464C283.003 402.597 286.449 402.786 290.32 402.8C291.057 402.808 291.794 402.817 292.553 402.825C294.931 402.845 297.309 402.845 299.688 402.839C300.499 402.838 301.311 402.836 302.148 402.835C321.969 402.755 338.255 399.338 356.459 391.382C358.364 390.551 360.283 389.753 362.203 388.96C394.094 374.757 420.022 345.197 432.559 312.897C433.855 309.134 434.928 305.401 435.563 301.464C436.45 301.794 437.336 302.124 438.25 302.464C441.303 303.386 443.425 303.549 446.563 303.464C447.194 301.049 447.818 298.632 448.438 296.214C448.699 295.22 448.699 295.22 448.965 294.206C451.61 283.822 452.908 273.745 452.813 263.026C452.807 261.93 452.801 260.834 452.794 259.705C452.701 252.098 452.228 244.906 450.563 237.464C450.333 236.407 450.104 235.35 449.867 234.261C449.376 232.079 448.869 229.9 448.344 227.726C447.817 225.526 447.318 223.32 446.844 221.108C445.358 214.218 443.421 207.904 440.563 201.464C440.185 200.6 439.807 199.737 439.418 198.847C438.478 196.714 437.527 194.586 436.563 192.464C435.903 192.464 435.243 192.464 434.563 192.464C434.48 191.786 434.398 191.108 434.313 190.409C433.356 186.653 431.568 183.613 429.563 180.339C429.157 179.674 428.751 179.01 428.333 178.325C410.684 150.006 379.818 125.856 347.563 116.464C346.903 116.464 346.243 116.464 345.563 116.464Z" fill="#B3B3B8"/>
<path d="M181.562 401.464C185.433 402.001 187.543 402.935 190.5 405.464C196.541 410.334 202.93 414.463 209.562 418.464C210.555 419.074 210.555 419.074 211.567 419.696C232.694 432.467 258.577 439.147 283 441.651C284.115 441.774 284.115 441.774 285.252 441.899C287.021 442.093 288.792 442.28 290.562 442.464C290.562 446.094 290.562 449.724 290.562 453.464C272.536 454.166 251.78 450.863 235.18 443.569C232.536 442.453 229.852 441.532 227.137 440.604C216.528 436.899 207.057 431.422 197.562 425.464C196.715 424.933 195.868 424.402 194.996 423.854C194.171 423.323 193.346 422.792 192.496 422.245C191.366 421.519 191.366 421.519 190.213 420.778C189.668 420.345 189.124 419.911 188.562 419.464C188.562 418.804 188.562 418.144 188.562 417.464C187.242 417.134 185.923 416.804 184.562 416.464C184.562 415.804 184.562 415.144 184.562 414.464C183.696 414.309 183.696 414.309 182.812 414.151C180.242 413.366 178.626 412.159 176.562 410.464C177.136 406.593 179.05 404.382 181.562 401.464Z" fill="#B3B3B8"/>
<path d="M180.563 179.464C181.058 180.454 181.058 180.454 181.563 181.464C180.635 183.855 179.641 186.141 178.563 188.464C177.957 189.838 177.353 191.213 176.75 192.589C175.562 195.271 174.341 197.929 173.078 200.577C169.981 207.102 167.364 213.463 165.563 220.464C160.951 221.603 158.08 220.97 153.563 219.464C150.747 233.328 149.015 246.561 149.125 260.714C149.127 261.513 149.129 262.312 149.131 263.136C149.186 276.256 150.343 288.706 153.563 301.464C153.824 302.614 154.086 303.764 154.356 304.948C155.533 309.763 157.109 314.072 159.5 318.417C160.715 320.757 161.714 323.169 162.741 325.595C177.879 360.047 206.836 388.44 241.864 402.38C246.049 403.91 250.276 405.246 254.563 406.464C255.223 403.494 255.883 400.524 256.563 397.464C257.635 397.608 258.708 397.753 259.813 397.901C264.408 398.49 269.011 398.797 273.633 399.085C276.563 399.464 276.563 399.464 279.261 400.467C283.003 401.597 286.45 401.786 290.32 401.8C291.057 401.808 291.794 401.817 292.553 401.825C294.931 401.845 297.309 401.845 299.688 401.839C300.904 401.838 300.904 401.838 302.146 401.836C320.598 401.77 336.112 399.016 353.133 391.757C354.265 391.33 355.397 390.903 356.563 390.464C357.223 390.794 357.883 391.124 358.563 391.464C355.253 395.423 351.52 396.929 346.75 398.526C346.003 398.783 345.255 399.04 344.485 399.304C317.175 408.383 287.439 407.253 259.563 401.464C259.346 402.887 259.346 402.887 259.125 404.339C258.563 407.464 258.563 407.464 257.563 409.464C251.261 409.949 246.654 408.317 240.875 405.901C239.989 405.537 239.103 405.173 238.189 404.798C231.278 401.895 224.832 398.59 218.563 394.464C217.018 393.466 217.018 393.466 215.442 392.448C194.742 378.632 178.019 361.055 165.563 339.464C165.563 338.804 165.563 338.144 165.563 337.464C164.903 337.464 164.243 337.464 163.563 337.464C158.753 327.821 154.593 318.344 151.586 307.987C150.761 305.147 149.862 302.375 148.875 299.589C144.61 286.889 144.33 273.612 144.313 260.339C144.311 259.654 144.309 258.969 144.308 258.263C144.306 246.117 144.923 234.82 149.563 223.464C149.967 222.034 150.345 220.597 150.688 219.151C150.976 217.934 151.265 216.718 151.563 215.464C155.193 216.124 158.823 216.784 162.563 217.464C162.632 216.522 162.702 215.579 162.774 214.608C163.529 209.369 165.885 204.868 168.188 200.151C168.635 199.222 169.082 198.293 169.543 197.336C172.687 190.929 176.043 185.017 180.563 179.464Z" fill="#B3B3B8"/>
<path d="M187.562 446.464C192.33 446.922 194.823 447.601 198.562 450.464C200.143 451.184 201.75 451.85 203.375 452.464C207.481 454.045 211.528 455.71 215.562 457.464C215.055 461.183 214.446 464.198 212.562 467.464C207.858 466.993 204.464 465.559 200.395 463.304C198.444 462.256 198.444 462.256 195.562 462.464C194.829 466.441 194.829 466.441 194.562 470.464C196.419 470.897 196.419 470.897 198.312 471.339C201.287 472.077 203.896 472.909 206.562 474.464C205.776 477.874 204.691 481.153 203.562 484.464C199.377 483.941 196.188 482.373 192.527 480.401C190.551 479.458 188.699 478.921 186.562 478.464C186.232 481.104 185.903 483.744 185.562 486.464C190.182 488.444 194.802 490.424 199.562 492.464C199.562 496.867 199.3 498.663 197.562 502.464C190.737 502.014 185.252 499.299 179.125 496.401C178.107 495.929 177.09 495.456 176.041 494.97C173.544 493.809 171.052 492.64 168.562 491.464C169.34 487.071 170.801 483.743 172.875 479.776C175.372 474.929 177.583 470.075 179.523 464.979C181.205 460.909 183.259 457.031 185.293 453.128C186.37 450.867 187.082 448.908 187.562 446.464Z" fill="#ECECEE"/>
<path d="M462.562 412.464C463.917 416.603 465.242 420.751 466.562 424.901C466.944 426.066 467.326 427.231 467.719 428.431C470.808 438.223 470.808 438.223 470.598 443.546C470.218 447.385 470.218 447.385 472.059 449.917C472.699 450.51 473.34 451.103 474 451.714C477.009 454.559 478.055 456.317 478.562 460.464C474.812 463.464 474.812 463.464 472.562 463.464C472.232 464.454 471.903 465.444 471.562 466.464C466.93 464.92 465.5 460.968 462.988 456.933C460.145 454.039 458.776 454.167 454.875 453.931C449.87 452.92 445.786 449.364 441.688 446.464C439.815 445.172 437.943 443.88 436.07 442.589C435.252 442.014 434.434 441.439 433.59 440.847C431.62 439.437 431.62 439.437 429.562 438.464C429.816 435.046 430.846 434.186 433.375 431.714C436.562 429.464 436.562 429.464 440.562 429.464C441.941 430.706 441.941 430.706 443.562 432.464C445.516 433.876 447.498 435.248 449.5 436.589C450.54 437.293 451.581 437.997 452.652 438.722C455.156 440.22 456.788 440.867 459.562 441.464C459.376 440.884 459.189 440.305 458.996 439.707C458.152 437.067 457.326 434.422 456.5 431.776C456.205 430.864 455.911 429.952 455.607 429.013C455.333 428.126 455.06 427.24 454.777 426.327C454.521 425.515 454.264 424.704 454 423.867C453.488 421.052 453.719 419.191 454.562 416.464C458.671 412.464 458.671 412.464 462.562 412.464Z" fill="#ECECEE"/>
<path d="M241.648 467.261C249.216 467.106 256.233 468.69 263.563 470.464C262.688 478.214 262.688 478.214 261.563 480.464C255.804 480.569 250.272 480.204 244.563 479.464C242.453 486.075 240.824 492.643 239.563 499.464C239.068 501.939 239.068 501.939 238.563 504.464C243.843 505.454 249.123 506.444 254.563 507.464C254.233 511.094 253.903 514.724 253.563 518.464C234.21 516.851 234.21 516.851 228.813 511.339C224.945 505.608 226.367 499.008 227.516 492.546C227.939 490.454 228.371 488.364 228.813 486.276C229.018 485.223 229.222 484.169 229.434 483.083C230.613 477.412 231.653 472.837 235.563 468.464C237.694 467.537 239.353 467.484 241.648 467.261Z" fill="#ECECEE"/>
<path d="M359.562 78.4639C382.385 81.7503 406.456 98.8851 423.562 113.464C422.442 116.825 421.065 118.039 418.562 120.464C418.067 121.454 418.067 121.454 417.562 122.464C413.472 121.054 410.566 119.084 407.188 116.401C392.351 104.979 375.341 96.3003 357.562 90.4639C357.704 89.026 357.851 87.5885 358 86.1514C358.081 85.3509 358.162 84.5504 358.246 83.7256C358.562 81.4639 358.562 81.4639 359.562 78.4639Z" fill="#B3B3B8"/>
<path d="M403.563 452.464C405.039 454.503 405.039 454.503 406.188 457.089C406.601 457.996 407.015 458.904 407.441 459.839C407.811 460.705 408.181 461.571 408.563 462.464C409.078 463.66 409.594 464.856 410.125 466.089C410.599 467.203 411.074 468.316 411.563 469.464C412.573 471.517 413.609 473.556 414.645 475.597C415.747 477.839 416.685 480.125 417.563 482.464C420.959 482.064 424.006 481.689 427.188 480.401C429.81 479.366 431.77 479.304 434.563 479.464C435.223 482.434 435.883 485.404 436.563 488.464C430.515 491.665 424.483 494.351 418.008 496.569C415.756 497.393 413.68 498.346 411.563 499.464C403.455 484.706 403.455 484.706 400.707 477.276C399.724 474.862 398.657 472.554 397.512 470.214C397.141 469.453 396.771 468.693 396.389 467.909C395.641 466.385 394.883 464.865 394.115 463.351C393.772 462.648 393.428 461.946 393.074 461.222C392.759 460.594 392.444 459.967 392.12 459.32C391.413 456.967 391.626 455.721 392.563 453.464C396.553 451.559 399.367 451.045 403.563 452.464Z" fill="#ECECEE"/>
<path d="M167.562 229.464C168.223 229.464 168.882 229.464 169.562 229.464C169.492 230.263 169.422 231.062 169.35 231.885C168.614 241.053 168.376 250.157 168.377 259.352C168.375 261.725 168.357 264.098 168.338 266.472C168.308 274.342 168.529 281.813 170.562 289.464C170.75 290.259 170.938 291.053 171.131 291.872C171.704 294.286 172.315 296.687 172.938 299.089C173.133 299.883 173.329 300.677 173.531 301.495C174.745 306.18 176.313 310.303 178.582 314.577C179.496 316.336 180.274 318.165 181.039 319.995C182.735 323.857 184.744 327.369 186.938 330.964C187.311 331.589 187.685 332.214 188.07 332.858C190.039 336.115 192.098 339.24 194.352 342.308C196.562 345.464 196.562 345.464 196.562 347.464C187.866 344.043 182.312 331.517 178.562 323.464C178.562 322.804 178.562 322.144 178.562 321.464C177.902 321.464 177.243 321.464 176.562 321.464C175.385 318.385 174.223 315.3 173.062 312.214C172.729 311.341 172.395 310.468 172.051 309.569C171.735 308.725 171.419 307.881 171.094 307.011C170.8 306.236 170.507 305.461 170.205 304.662C169.562 302.464 169.562 302.464 169.562 298.464C168.902 298.464 168.243 298.464 167.562 298.464C167.381 297.23 167.381 297.23 167.195 295.972C167.028 294.855 166.86 293.739 166.688 292.589C166.525 291.498 166.363 290.408 166.195 289.284C165.861 287.268 165.514 285.251 165.055 283.26C163.435 276.148 163.264 269.302 163.312 262.026C163.305 260.876 163.297 259.725 163.289 258.54C163.312 248.458 164.997 239.176 167.562 229.464Z" fill="#B3B3B8"/>
<path d="M386.562 364.464C384.508 369.331 380.901 371.663 376.562 374.464C374.898 375.137 373.233 375.806 371.562 376.464C371.232 377.454 370.903 378.444 370.562 379.464C365.993 381.749 361.289 383.223 356.383 384.62C355.782 384.899 355.181 385.177 354.562 385.464C354.067 386.949 354.067 386.949 353.562 388.464C327.992 400.482 295.683 399.837 268.562 394.464C268.232 393.474 267.903 392.484 267.562 391.464C268.621 391.608 269.679 391.753 270.77 391.901C308.438 396.656 346.088 392.669 377.332 369.401C378.838 368.195 380.328 366.969 381.793 365.714C383.562 364.464 383.562 364.464 386.562 364.464Z" fill="#B3B3B8"/>
<path d="M302.25 124.964C303.561 124.958 304.872 124.951 306.222 124.945C314.746 125.056 323.462 125.585 331.562 128.464C332.058 129.949 332.058 129.949 332.562 131.464C328.601 131.632 325.693 131.498 321.816 130.476C315.481 129.02 309.074 129.129 302.608 129.148C300.462 129.151 298.318 129.128 296.172 129.103C283.569 129.044 271.76 131.223 259.688 134.901C258.612 135.225 258.612 135.225 257.515 135.556C252.325 137.155 247.396 138.971 242.562 141.464C241.56 141.967 240.557 142.469 239.523 142.987C232.013 146.875 225.293 151.363 218.562 156.464C215.562 158.464 215.562 158.464 212.562 158.464C214.098 154.222 216.9 152.551 220.562 150.089C221.144 149.697 221.726 149.305 222.325 148.901C227.298 145.575 232.351 142.405 237.562 139.464C238.179 139.108 238.795 138.752 239.43 138.386C258.313 128.174 281.088 124.998 302.25 124.964Z" fill="#B3B3B8"/>
<path d="M402.562 174.464C414.026 179.323 421.757 197.391 426.376 208.403C431.82 222.414 436.08 237.366 436.562 252.464C436.614 253.772 436.666 255.081 436.719 256.429C437.056 269.219 435.789 282.057 432.562 294.464C431.572 294.464 430.582 294.464 429.562 294.464C430.045 290.54 430.54 286.624 431.098 282.71C434.124 260.854 433.213 238.329 425.562 217.464C425.232 216.474 424.903 215.484 424.562 214.464C423.902 214.134 423.243 213.804 422.562 213.464C422.148 211.397 422.148 211.397 421.938 208.901C421.863 208.075 421.788 207.249 421.711 206.397C421.637 205.44 421.637 205.44 421.562 204.464C420.902 204.464 420.243 204.464 419.562 204.464C419.066 203.425 418.57 202.386 418.059 201.315C412.352 187.586 412.352 187.586 402.562 177.464C402.562 176.474 402.562 175.484 402.562 174.464Z" fill="#B3B3B8"/>
<path d="M221.562 361.464C225.026 362.081 227.089 363.414 229.875 365.526C247.003 377.682 267.457 385.584 288.562 386.464C289.57 386.506 290.578 386.549 291.616 386.592C304.362 387.037 316.368 387.146 328.621 383.339C331.562 382.464 331.562 382.464 335.562 382.464C335.562 383.784 335.562 385.104 335.562 386.464C335.003 386.55 334.443 386.635 333.866 386.723C331.327 387.113 328.788 387.507 326.25 387.901C325.369 388.036 324.488 388.171 323.58 388.31C322.309 388.508 322.309 388.508 321.012 388.71C320.231 388.83 319.451 388.951 318.647 389.075C316.38 389.449 316.38 389.449 313.562 390.464C300.702 391.258 287.425 391.18 274.688 389.151C273.568 388.975 273.568 388.975 272.426 388.795C268.013 387.995 264.511 386.535 260.562 384.464C258.492 383.797 256.408 383.172 254.312 382.589C243.517 379.337 234.762 373.912 225.562 367.464C224.786 366.951 224.01 366.438 223.211 365.909C222.667 365.432 222.123 364.955 221.562 364.464C221.562 363.474 221.562 362.484 221.562 361.464Z" fill="#B3B3B8"/>
<path d="M421.562 225.464C422.553 225.464 423.543 225.464 424.562 225.464C425.048 227.441 425.526 229.421 426 231.401C426.267 232.504 426.534 233.606 426.809 234.741C430.451 252.729 430.812 274.8 425.562 292.464C425.375 293.125 425.187 293.786 424.994 294.468C420.964 308.634 414.861 320.749 407.562 333.464C406.802 334.794 406.041 336.125 405.281 337.456C404.714 338.449 404.147 339.441 403.562 340.464C402.242 340.464 400.923 340.464 399.562 340.464C400.179 336.303 402.525 333.192 404.812 329.776C409.536 322.569 413.916 315.717 416.562 307.464C416.953 306.339 417.344 305.213 417.746 304.054C418.16 302.848 418.574 301.643 419 300.401C419.411 299.214 419.822 298.027 420.246 296.804C423.7 285.808 425.066 275.548 424.938 264.026C424.935 263.337 424.932 262.647 424.929 261.936C424.874 249.612 423.722 237.601 421.562 225.464Z" fill="#B3B3B8"/>
<path d="M299.211 132.203C301.322 132.214 303.432 132.203 305.543 132.19C306.898 132.192 308.254 132.194 309.609 132.198C310.825 132.2 312.04 132.203 313.292 132.205C316.495 132.458 318.665 133.139 321.562 134.464C323.139 134.753 324.724 135.001 326.312 135.214C334.385 136.592 341.938 139.554 349.562 142.464C350.408 142.782 351.254 143.101 352.125 143.429C361.289 147.195 371.191 152.824 378.562 159.464C378.562 160.124 378.562 160.784 378.562 161.464C374.732 160.818 372.099 159.01 368.875 156.901C339.473 138.395 306.511 132.677 272.5 139.1C269.861 139.595 267.213 140.031 264.562 140.464C264.562 139.474 264.562 138.484 264.562 137.464C266.375 137.004 268.187 136.546 270 136.089C271.009 135.834 272.019 135.578 273.059 135.315C274.215 135.034 275.371 134.753 276.562 134.464C277.178 134.286 277.793 134.108 278.427 133.925C285.284 132.105 292.165 132.16 299.211 132.203Z" fill="#B3B3B8"/>
<path d="M197.563 182.464C198.553 182.794 199.543 183.124 200.563 183.464C200.226 186.49 199.577 187.45 197.316 189.577C193.975 193.079 191.91 196.693 189.688 200.964C189.257 201.791 188.826 202.619 188.383 203.471C181.643 216.855 177.142 230.659 175.852 245.604C175.563 248.464 175.563 248.464 174.563 249.464C173.61 261.206 174.171 272.891 176.895 284.335C177.782 288.489 177.785 292.236 177.563 296.464C169.829 288.73 171.402 275.569 171.377 265.489C171.377 264.775 171.377 264.06 171.377 263.324C171.375 261.166 171.357 259.007 171.338 256.849C171.285 244.506 172.619 232.934 176.625 221.214C177.079 219.876 177.079 219.876 177.541 218.511C182.198 205.298 188.865 193.436 197.563 182.464Z" fill="#B3B3B8"/>
<path d="M228.562 330.464C235.823 330.464 243.082 330.464 250.562 330.464C250.562 335.414 250.562 340.364 250.562 345.464C243.302 345.464 236.043 345.464 228.562 345.464C228.562 340.514 228.562 335.564 228.562 330.464Z" fill="#5113B6"/>
<path d="M292.562 309.464C299.823 309.464 307.082 309.464 314.562 309.464C314.562 314.414 314.562 319.364 314.562 324.464C307.302 324.464 300.043 324.464 292.562 324.464C292.562 319.514 292.562 314.564 292.562 309.464Z" fill="#5113B6"/>
<path d="M260.562 309.464C267.823 309.464 275.082 309.464 282.562 309.464C282.562 314.414 282.562 319.364 282.562 324.464C275.302 324.464 268.043 324.464 260.562 324.464C260.562 319.514 260.562 314.564 260.562 309.464Z" fill="#5113B6"/>
<path d="M228.562 309.464C235.823 309.464 243.082 309.464 250.562 309.464C250.562 314.414 250.562 319.364 250.562 324.464C243.302 324.464 236.043 324.464 228.562 324.464C228.562 319.514 228.562 314.564 228.562 309.464Z" fill="#5113B6"/>
<path d="M292.562 247.464C299.823 247.464 307.082 247.464 314.562 247.464C314.562 252.414 314.562 257.364 314.562 262.464C307.302 262.464 300.043 262.464 292.562 262.464C292.562 257.514 292.562 252.564 292.562 247.464Z" fill="#8553D5"/>
<path d="M292.562 226.464C299.823 226.464 307.082 226.464 314.562 226.464C314.562 231.414 314.562 236.364 314.562 241.464C307.302 241.464 300.043 241.464 292.562 241.464C292.562 236.514 292.562 231.564 292.562 226.464Z" fill="#8553D5"/>
<path d="M260.562 164.464C267.823 164.464 275.082 164.464 282.562 164.464C282.562 169.414 282.562 174.364 282.562 179.464C275.302 179.464 268.043 179.464 260.562 179.464C260.562 174.514 260.562 169.564 260.562 164.464Z" fill="#A889DC"/>
<path d="M293.562 330.464C300.492 330.464 307.423 330.464 314.562 330.464C314.562 335.414 314.562 340.364 314.562 345.464C307.633 345.464 300.702 345.464 293.562 345.464C293.562 340.514 293.562 335.564 293.562 330.464Z" fill="#5414BB"/>
<path d="M261.562 330.464C268.492 330.464 275.423 330.464 282.562 330.464C282.562 335.414 282.562 340.364 282.562 345.464C275.633 345.464 268.702 345.464 261.562 345.464C261.562 340.514 261.562 335.564 261.562 330.464Z" fill="#5414BB"/>
<path d="M293.562 288.464C300.492 288.464 307.423 288.464 314.562 288.464C314.562 293.414 314.562 298.364 314.562 303.464C307.633 303.464 300.702 303.464 293.562 303.464C293.562 298.514 293.562 293.564 293.562 288.464Z" fill="#6520D5"/>
<path d="M261.562 288.464C268.492 288.464 275.423 288.464 282.562 288.464C282.562 293.414 282.562 298.364 282.562 303.464C275.633 303.464 268.702 303.464 261.562 303.464C261.562 298.514 261.562 293.564 261.562 288.464Z" fill="#6520D5"/>
<path d="M229.562 288.464C236.492 288.464 243.423 288.464 250.562 288.464C250.562 293.414 250.562 298.364 250.562 303.464C243.633 303.464 236.702 303.464 229.562 303.464C229.562 298.514 229.562 293.564 229.562 288.464Z" fill="#6520D5"/>
<path d="M293.562 268.464C300.492 268.464 307.423 268.464 314.562 268.464C314.562 273.414 314.562 278.364 314.562 283.464C307.633 283.464 300.702 283.464 293.562 283.464C293.562 278.514 293.562 273.564 293.562 268.464Z" fill="#6520D5"/>
<path d="M261.562 268.464C268.492 268.464 275.423 268.464 282.562 268.464C282.562 273.414 282.562 278.364 282.562 283.464C275.633 283.464 268.702 283.464 261.562 283.464C261.562 278.514 261.562 273.564 261.562 268.464Z" fill="#6520D5"/>
<path d="M229.562 268.464C236.492 268.464 243.423 268.464 250.562 268.464C250.562 273.414 250.562 278.364 250.562 283.464C243.633 283.464 236.702 283.464 229.562 283.464C229.562 278.514 229.562 273.564 229.562 268.464Z" fill="#6520D5"/>
<path d="M261.562 247.464C268.492 247.464 275.423 247.464 282.562 247.464C282.562 252.414 282.562 257.364 282.562 262.464C275.633 262.464 268.702 262.464 261.562 262.464C261.562 257.514 261.562 252.564 261.562 247.464Z" fill="#8956DB"/>
<path d="M229.562 247.464C236.492 247.464 243.423 247.464 250.562 247.464C250.562 252.414 250.562 257.364 250.562 262.464C243.633 262.464 236.702 262.464 229.562 262.464C229.562 257.514 229.562 252.564 229.562 247.464Z" fill="#8956DB"/>
<path d="M293.562 185.464C300.492 185.464 307.423 185.464 314.562 185.464C314.562 190.414 314.562 195.364 314.562 200.464C307.633 200.464 300.702 200.464 293.562 200.464C293.562 195.514 293.562 190.564 293.562 185.464Z" fill="#AD8DE2"/>
<path d="M261.562 185.464C268.492 185.464 275.423 185.464 282.562 185.464C282.562 190.414 282.562 195.364 282.562 200.464C275.633 200.464 268.702 200.464 261.562 200.464C261.562 195.514 261.562 190.564 261.562 185.464Z" fill="#AD8DE2"/>
<path d="M261.562 227.464C268.492 227.464 275.423 227.464 282.562 227.464C282.562 232.084 282.562 236.704 282.562 241.464C275.633 241.464 268.702 241.464 261.562 241.464C261.562 236.844 261.562 232.224 261.562 227.464Z" fill="#8D59E1"/>
<path d="M229.562 227.464C236.492 227.464 243.423 227.464 250.562 227.464C250.562 232.084 250.562 236.704 250.562 241.464C243.633 241.464 236.702 241.464 229.562 241.464C229.562 236.844 229.562 232.224 229.562 227.464Z" fill="#8D58E1"/>
<path d="M293.562 206.464C300.492 206.464 307.423 206.464 314.562 206.464C314.562 211.084 314.562 215.704 314.562 220.464C307.633 220.464 300.702 220.464 293.562 220.464C293.562 215.844 293.562 211.224 293.562 206.464Z" fill="#8E59E2"/>
<path d="M261.562 206.464C268.492 206.464 275.423 206.464 282.562 206.464C282.562 211.084 282.562 215.704 282.562 220.464C275.633 220.464 268.702 220.464 261.562 220.464C261.562 215.844 261.562 211.224 261.562 206.464Z" fill="#8E59E2"/>
<path d="M229.562 206.464C236.492 206.464 243.423 206.464 250.562 206.464C250.562 211.084 250.562 215.704 250.562 220.464C243.633 220.464 236.702 220.464 229.562 220.464C229.562 215.844 229.562 211.224 229.562 206.464Z" fill="#8E59E2"/>
<path d="M362.562 217.464C374.05 222.695 380.057 235.573 384.617 246.64C389.171 260.245 388.074 277.998 381.969 290.808C377.388 299.683 370.204 311.589 360.562 315.464C361.961 312.237 363.58 310.359 366.188 308.026C377.659 296.7 382.521 282.936 383.062 267.089C382.551 250.436 377.947 234.918 366.562 222.464C365.832 221.926 365.101 221.389 364.348 220.835C363.759 220.382 363.169 219.93 362.562 219.464C362.562 218.804 362.562 218.144 362.562 217.464Z" fill="#B3B3B8"/>
<path d="M368.562 211.464C373.41 212.86 375.975 215.734 379.062 219.526C379.547 220.115 380.032 220.703 380.532 221.31C391.107 234.389 395.426 248.283 395 265.026C394.992 266.366 394.986 267.705 394.982 269.044C394.852 279.385 394.852 279.385 392.562 284.464C392.253 285.557 391.944 286.65 391.625 287.776C390.472 291.778 389.061 295.581 387.562 299.464C386.902 299.464 386.243 299.464 385.562 299.464C385.298 300.199 385.034 300.933 384.762 301.69C381.733 308.696 375.57 315.758 369.562 320.464C367.355 321.151 367.355 321.151 365.562 321.464C366.387 320.494 367.212 319.525 368.062 318.526C368.61 317.882 369.158 317.237 369.723 316.573C370.953 315.163 372.211 313.777 373.496 312.417C387.438 297.524 392.322 281.041 392.088 261.011C391.734 250.66 389.185 242.525 383.809 233.694C382.562 231.464 382.562 231.464 381.266 228.101C379.558 224.023 376.941 221.214 373.875 218.089C368.562 212.555 368.562 212.555 368.562 211.464Z" fill="#B3B3B8"/>
<path d="M354.562 222.464C362.282 224.913 367.428 231.907 371.473 238.647C372.951 241.557 374.326 244.444 375.562 247.464C375.938 248.339 376.313 249.214 376.699 250.116C377.955 254.988 377.891 259.703 377.875 264.714C377.891 265.7 377.907 266.686 377.924 267.702C377.928 274.436 376.863 280.138 374.562 286.464C373.902 286.464 373.243 286.464 372.562 286.464C372.232 288.444 371.903 290.424 371.562 292.464C370.902 292.464 370.243 292.464 369.562 292.464C369.336 293.206 369.109 293.949 368.875 294.714C367.318 297.975 365.477 299.393 362.562 301.464C363.865 297.937 365.439 294.975 367.5 291.839C375.607 278.381 375.069 262.425 371.562 247.464C368.613 238.288 362.777 231.362 355.883 224.812C354.562 223.464 354.562 223.464 354.562 222.464Z" fill="#B3B3B8"/>
<path d="M354.562 234.464C358.001 235.879 359.549 237.424 361.562 240.526C362.037 241.239 362.511 241.952 363 242.687C367.237 250.219 369.241 256.127 369.062 264.839C369.055 265.756 369.047 266.674 369.039 267.619C368.865 274.445 367.767 280.355 364.562 286.464C363.902 286.464 363.243 286.464 362.562 286.464C362.336 287.165 362.109 287.866 361.875 288.589C360.224 292.205 358.272 294.552 355.562 297.464C354.902 297.464 354.243 297.464 353.562 297.464C354.752 294.761 356.083 292.806 357.938 290.464C365.396 279.906 366.078 266.958 364.562 254.464C363.425 250.082 361.823 246.375 359.562 242.464C358.847 241.226 358.847 241.226 358.117 239.964C356.984 238.098 355.781 236.275 354.562 234.464Z" fill="#B3B3B8"/>
<path fill-rule="evenodd" clip-rule="evenodd" d="M377.563 476.464C376.656 472.893 375.813 469.63 373.055 467.058C366.388 462.873 359.764 464.465 352.482 466.241L349.625 466.964C346.269 467.789 342.914 468.617 339.563 469.464C339.519 471.463 339.523 473.464 339.563 475.464C340.076 476.411 340.355 476.926 340.564 477.467C340.812 478.111 340.961 478.793 341.287 480.286L342.121 483.87C342.428 485.185 342.735 486.5 343.041 487.816C343.518 489.878 343.995 491.941 344.476 494.002C346.171 501.255 347.827 508.509 349.25 515.821L349.563 517.464C353.998 517.464 357.296 516.602 361.563 515.464C361.965 510.363 360.748 506.239 359.219 501.441L358.563 499.464C359.885 499.089 361.221 498.764 362.563 498.464H366.313C371.391 497.863 373.945 494.774 377.059 490.948C379.678 486.621 379.242 483.358 378.098 478.483L377.563 476.464ZM366.562 487.464C366.562 483.029 365.7 479.73 364.562 475.464C360.73 475.375 357.297 475.585 353.562 476.464C353.562 477.333 353.562 477.978 353.597 478.622C353.695 480.477 354.078 482.317 355.562 489.464L366.562 487.464Z" fill="#ECECEE"/>
<path fill-rule="evenodd" clip-rule="evenodd" d="M154.808 423.507C150.617 420.142 146.443 416.79 141.562 414.464C137.962 418.56 134.531 422.734 131.275 427.109C130.989 427.496 130.704 427.882 130.419 428.268C127.662 432.003 124.905 435.738 122.055 439.402L120.598 441.253C119.691 442.407 118.784 443.561 117.875 444.714C117.676 444.964 117.479 445.21 117.285 445.452C115.001 448.3 113.094 450.678 112.562 454.464C115.83 456.642 118.943 457.961 122.562 459.464L124.285 457.022L126.625 453.901C127.731 452.262 128.266 451.468 128.909 450.774C129.512 450.122 130.21 449.558 131.562 448.464C133.523 448.475 134.456 448.481 135.369 448.624C136.199 448.754 137.011 448.998 138.562 449.464L137.562 458.464H135.562C134.345 462.117 133.304 465.582 133.562 469.464C134.512 470.495 135.12 471.155 135.805 471.724C137.026 472.737 138.489 473.458 142.562 475.464C144.705 470.132 146.699 465.022 147.312 459.276L147.562 455.464C148.521 455.546 149.06 455.592 149.599 455.602C150.29 455.615 150.982 455.569 152.562 455.464C157.616 453.122 160.564 449.71 162.812 444.651L163.562 442.464H165.562C165.989 439.04 166.109 435.88 165.562 432.464C164.254 430.506 162.884 429.47 160.969 428.104C159.631 427.192 158.302 426.263 157.02 425.274C156.279 424.688 155.543 424.097 154.808 423.507ZM153.562 435.464C150.274 432.552 147.964 430.967 143.562 430.464C141.06 433.402 140.093 435.643 139.562 439.464C142.851 442.376 145.161 443.961 149.562 444.464C152.065 441.526 153.032 439.285 153.562 435.464Z" fill="#ECECEE"/>
<path fill-rule="evenodd" clip-rule="evenodd" d="M304.715 472.317L302.312 472.276C302.09 472.269 301.87 472.262 301.65 472.254C297.996 472.131 294.67 472.018 291.203 473.413C289.122 476.014 288.302 478.442 287.353 481.619L286.562 484.464C285.504 488.162 284.458 491.863 283.455 495.577C282.914 497.591 282.371 499.603 281.816 501.613C281.448 502.945 281.083 504.277 280.723 505.611L280.207 507.534C278.903 512.33 278.396 516.491 278.562 521.464L280.715 521.499L283.5 521.526C285.187 521.548 286.876 521.536 288.562 521.464C288.871 521.155 289.095 520.932 289.277 520.677C289.758 520.005 289.945 519.122 290.625 515.901L291.562 511.464L306.562 510.464C306.562 514.857 306.562 516.493 306.81 518.091C306.956 519.039 307.19 519.974 307.562 521.464H319.562C320.019 513.857 318.423 506.82 316.562 499.464C316.433 499.083 316.304 498.706 316.174 498.33C315.379 496.019 314.608 493.78 314.254 491.331C313.833 484.835 312.249 478.734 310.562 472.464C308.613 472.406 306.664 472.353 304.715 472.317ZM301.562 484.464L297.562 483.464C295.594 489.286 294.16 494.298 294.562 500.464H303.562C303.854 494.917 302.753 489.844 301.562 484.464Z" fill="#ECECEE"/>
<path d="M325.562 253.464C331.562 253.464 331.562 253.464 334.312 255.776C338.445 260.712 338.445 260.712 339.062 264.651C338.35 270.082 335.386 273.641 331.562 277.464C329.582 277.464 327.602 277.464 325.562 277.464C325.562 269.544 325.562 261.624 325.562 253.464Z" fill="#E9E9EB"/>
</svg>
